<?xml version="1.0" encoding="UTF-8"?>
<!DOCTYPE svg PUBLIC "-//W3C//DTD SVG 1.1//EN" "http://www.w3.org/Graphics/SVG/1.1/DTD/svg11.dtd">
<!-- Creator: CorelDRAW -->
<svg xmlns="http://www.w3.org/2000/svg" xml:space="preserve" width="2048px" height="2048px" style="shape-rendering:geometricPrecision; text-rendering:geometricPrecision; image-rendering:optimizeQuality; fill-rule:evenodd; clip-rule:evenodd"
viewBox="0 0 2048 2048"
 xmlns:xlink="http://www.w3.org/1999/xlink">
 <defs>
  <style type="text/css">
   <![CDATA[
    .fil2 {fill:none}
    .fil8 {fill:#0277BD}
    .fil11 {fill:#212121}
    .fil24 {fill:#263238}
    .fil5 {fill:#37474F}
    .fil9 {fill:#3E2723}
    .fil26 {fill:#616161}
    .fil21 {fill:#90A4AE}
    .fil25 {fill:#9E9E9E}
    .fil1 {fill:#B0BEC5}
    .fil27 {fill:#B71C1C}
    .fil0 {fill:#CFD8DC}
    .fil20 {fill:#D32F2F}
    .fil6 {fill:#D7B48F}
    .fil23 {fill:#E57373}
    .fil10 {fill:#E8C198}
    .fil12 {fill:#FF6F00}
    .fil16 {fill:#FFECB3}
    .fil17 {fill:#212121;fill-rule:nonzero}
    .fil22 {fill:#3B4C55;fill-rule:nonzero}
    .fil18 {fill:#B71C1C;fill-rule:nonzero}
    .fil19 {fill:#D32F2F;fill-rule:nonzero}
    .fil13 {fill:#D7B48F;fill-rule:nonzero}
    .fil3 {fill:#E8C198;fill-rule:nonzero}
    .fil15 {fill:#E9CBAB;fill-rule:nonzero}
    .fil4 {fill:#FF6F00;fill-rule:nonzero}
    .fil7 {fill:#FF8F00;fill-rule:nonzero}
    .fil14 {fill:#FFA000;fill-rule:nonzero}
   ]]>
  </style>
   <clipPath id="id0">
    <path d="M1024 -0.0011811c565.539,0 1024,458.462 1024,1024 0,565.539 -458.462,1024 -1024,1024 -565.539,0 -1024,-458.462 -1024,-1024 0,-565.539 458.462,-1024 1024,-1024z"/>
   </clipPath>
 </defs>
 <g id="Layer_x0020_1">
  <metadata id="CorelCorpID_0Corel-Layer"/>
  <path class="fil0" d="M1024 -0.0011811c565.539,0 1024,458.462 1024,1024 0,565.539 -458.462,1024 -1024,1024 -565.539,0 -1024,-458.462 -1024,-1024 0,-565.539 458.462,-1024 1024,-1024z"/>
  <g style="clip-path:url(#id0)">
   <g id="_289350056">
    <g>
     <polygon id="_2433623281" class="fil1" points="830.329,638.197 1966.21,1774.08 1966.21,1786.99 1966.15,1790.64 1965.97,1794.27 1965.66,1797.87 1965.24,1801.44 1964.71,1804.97 1964.06,1808.46 1963.3,1811.91 1962.43,1815.33 1961.45,1818.69 1960.36,1822.02 1959.18,1825.29 1957.89,1828.52 1956.5,1831.7 1955.01,1834.82 1953.43,1837.89 1951.75,1840.9 1949.98,1843.85 1948.12,1846.74 1946.17,1849.57 1944.14,1852.33 1942.03,1855.03 1939.83,1857.65 1937.55,1860.21 1935.19,1862.69 1932.76,1865.1 1930.25,1867.43 1927.67,1869.69 1925.02,1871.86 1922.3,1873.95 1919.52,1875.95 1916.67,1877.87 1913.76,1879.7 777.877,743.816 780.788,741.987 783.636,740.069 786.421,738.064 789.139,735.975 791.788,733.803 794.369,731.549 796.875,729.218 799.309,726.81 801.666,724.327 803.945,721.77 806.144,719.143 808.261,716.448 810.294,713.685 812.24,710.858 814.099,707.966 815.868,705.015 817.546,702.004 819.128,698.937 820.616,695.814 822.005,692.638 823.295,689.411 824.482,686.135 825.566,682.811 826.546,679.443 827.416,676.03 828.177,672.578 828.826,669.086 829.361,665.555 829.782,661.991 830.084,658.392 830.267,654.762 830.329,651.103 "/>
     <polygon id="_243362712" class="fil1" points="797.979,729.213 1933.86,1865.1 1949.44,1906.29 813.559,770.412 "/>
     <path id="_243362904" class="fil1" d="M1963.88 1906.78l0 0zm-1135.88 -1135.88l0 0z"/>
     <path id="_243362832" class="fil1" d="M1963.91 1906.77l0 0zm-1135.88 -1135.88l0 0z"/>
     <polygon id="_243363096" class="fil1" points="1336.68,599.142 2472.56,1735.02 2473.77,1736.57 2474.9,1738.34 2475.94,1740.33 2476.89,1742.52 2477.73,1744.9 2478.47,1747.44 2479.09,1750.14 2479.58,1752.97 2479.94,1755.92 2480.17,1758.99 2480.24,1762.14 1344.36,626.256 1344.29,623.104 1344.06,620.043 1343.7,617.087 1343.21,614.254 1342.59,611.559 1341.85,609.016 1341.01,606.642 1340.06,604.452 1339.02,602.462 1337.89,600.687 "/>
     <polygon id="_243330720" class="fil1" points="1344.36,626.256 2480.24,1762.14 2480.17,1765.29 2479.94,1768.35 2479.58,1771.31 2479.09,1774.14 2478.47,1776.84 2477.73,1779.38 2476.89,1781.75 2475.94,1783.94 2474.9,1785.93 2473.77,1787.71 2472.56,1789.25 2471.27,1790.55 2469.92,1791.59 2468.52,1792.35 2467.06,1792.82 2465.56,1792.98 1329.68,657.093 1331.18,656.933 1332.64,656.467 1334.04,655.706 1335.39,654.669 1336.68,653.371 1337.89,651.826 1339.02,650.051 1340.06,648.061 1341.01,645.871 1341.85,643.497 1342.59,640.954 1343.21,638.259 1343.7,635.425 1344.06,632.47 1344.29,629.409 "/>
     <polygon id="_243330552" class="fil1" points="1329.68,657.093 2465.56,1792.98 2433.55,1792.98 1297.67,657.093 "/>
     <polygon id="_243331176" class="fil1" points="1297.67,657.093 2433.55,1792.98 2433.55,1803.08 1297.67,667.197 "/>
     <polygon id="_243330696" class="fil1" points="1498.63,676.78 2634.51,1812.66 2635.99,1814.64 2637.28,1816.76 2638.37,1819.01 2639.23,1821.38 2639.87,1823.84 2640.26,1826.4 2640.39,1829.03 2640.26,1831.66 2639.87,1834.21 2639.23,1836.68 2638.37,1839.04 2637.28,1841.29 2635.99,1843.41 2634.51,1845.39 2632.85,1847.22 2631.02,1848.88 2629.04,1850.36 2626.92,1851.65 2624.67,1852.74 2622.31,1853.6 2619.84,1854.24 2617.29,1854.63 2614.66,1854.76 2614.56,1854.76 2614.45,1854.76 2614.35,1854.76 2614.25,1854.75 2614.15,1854.75 2614.05,1854.75 2613.95,1854.75 2613.85,1854.75 1477.97,718.863 1478.07,718.866 1478.17,718.869 1478.27,718.871 1478.37,718.873 1478.47,718.874 1478.57,718.875 1478.68,718.876 1478.78,718.876 1481.41,718.744 1483.96,718.353 1486.43,717.72 1488.79,716.854 1491.04,715.771 1493.16,714.482 1495.14,713.001 1496.97,711.34 1498.63,709.512 1500.11,707.532 1501.4,705.41 1502.49,703.162 1503.35,700.797 1503.98,698.332 1504.37,695.776 1504.51,693.146 1504.37,690.515 1503.98,687.961 1503.35,685.496 1502.49,683.131 1501.4,680.882 1500.11,678.761 "/>
     <polygon id="_243330600" class="fil1" points="1477.97,718.863 2613.85,1854.75 2602.09,1872.84 1466.21,736.959 "/>
     <polygon id="_243330744" class="fil1" points="1506.23,775.762 2642.11,1911.64 2647.06,1917.49 2651.86,1923.46 2656.52,1929.54 2661.04,1935.73 2665.42,1942.04 2669.64,1948.46 2673.71,1954.98 2677.63,1961.61 2681.39,1968.34 2684.99,1975.16 2688.43,1982.09 2691.71,1989.1 2694.82,1996.21 2697.76,2003.41 2700.53,2010.69 2703.12,2018.06 2705.54,2025.51 2707.78,2033.04 2709.84,2040.65 2711.72,2048.32 2713.4,2056.08 2714.9,2063.89 2716.21,2071.78 2717.32,2079.73 2718.23,2087.74 2718.95,2095.81 2719.47,2103.93 2719.78,2112.11 2719.88,2120.34 1584,984.463 1583.9,976.231 1583.59,968.052 1583.07,959.926 1582.35,951.857 1581.44,943.846 1580.33,935.897 1579.02,928.012 1577.52,920.193 1575.83,912.442 1573.96,904.764 1571.9,897.159 1569.66,889.631 1567.24,882.18 1564.65,874.812 1561.88,867.529 1558.94,860.33 1555.83,853.222 1552.55,846.204 1549.11,839.28 1545.51,832.453 1541.75,825.725 1537.83,819.097 1533.76,812.575 1529.53,806.158 1525.16,799.851 1520.64,793.655 1515.98,787.574 1511.18,781.608 "/>
     <polygon id="_243331248" class="fil1" points="811.403,510.676 1947.28,1646.56 1949,1648.42 1950.66,1650.33 1952.26,1652.31 1953.8,1654.35 1955.29,1656.45 1956.72,1658.61 1958.08,1660.83 1959.39,1663.12 1960.63,1665.47 1961.81,1667.89 1962.93,1670.37 1963.98,1672.92 1964.96,1675.54 1965.88,1678.22 1966.73,1680.97 1967.51,1683.79 1968.22,1686.69 1968.86,1689.65 1969.43,1692.68 1969.93,1695.79 1970.35,1698.97 1970.69,1702.22 1970.97,1705.54 1971.16,1708.94 1971.28,1712.42 1971.32,1715.97 835.438,580.089 835.399,576.537 835.281,573.061 835.085,569.66 834.813,566.334 834.466,563.083 834.044,559.904 833.548,556.799 832.98,553.765 832.34,550.803 831.629,547.911 830.848,545.09 829.999,542.337 829.081,539.653 828.096,537.037 827.046,534.487 825.93,532.004 824.75,529.588 823.508,527.235 822.203,524.947 820.836,522.723 819.408,520.563 817.922,518.463 816.377,516.426 814.776,514.45 813.116,512.533 "/>
     <polygon id="_243331272" class="fil1" points="835.438,580.089 1971.32,1715.97 1971.31,1717.95 1971.29,1719.82 1971.26,1721.6 1971.2,1723.3 1971.13,1724.94 1971.04,1726.53 1970.93,1728.1 1970.79,1729.65 1970.64,1731.2 1970.45,1732.76 1970.24,1734.36 1970.01,1736.01 1969.74,1737.72 1969.44,1739.51 1969.12,1741.39 1968.76,1743.39 832.875,607.503 833.235,605.509 833.564,603.625 833.859,601.836 834.125,600.126 834.362,598.479 834.571,596.881 834.754,595.314 834.911,593.764 835.046,592.216 835.158,590.652 835.249,589.058 835.321,587.418 835.374,585.717 835.411,583.939 835.431,582.069 "/>
     <polygon id="_243330888" class="fil1" points="666.078,743.815 1801.96,1879.7 1799.05,1877.87 1796.2,1875.95 1793.42,1873.94 1790.7,1871.85 1788.05,1869.68 1785.47,1867.43 1782.96,1865.1 647.08,729.217 649.588,731.548 652.167,733.801 654.817,735.973 657.534,738.062 660.319,740.067 663.167,741.986 "/>
     <polygon id="_243330984" class="fil1" points="870.796,937.477 2006.68,2073.36 2009.68,2297.24 873.794,1161.36 "/>
     <polygon id="_243331080" class="fil1" points="946.482,998.45 2082.36,2134.33 2080.16,2133.85 2077.9,2133.32 2075.6,2132.75 2073.27,2132.13 2070.92,2131.47 2068.55,2130.77 2066.16,2130.03 2063.78,2129.25 2061.4,2128.44 2059.03,2127.59 2056.69,2126.72 2054.37,2125.81 2052.09,2124.88 2049.86,2123.93 2047.68,2122.95 2045.55,2121.95 2043.5,2120.93 2041.52,2119.89 2039.62,2118.84 2037.81,2117.77 2036.1,2116.7 2034.5,2115.61 2033.01,2114.52 2031.65,2113.42 2030.41,2112.32 894.527,976.433 895.765,977.537 897.132,978.636 898.62,979.73 900.223,980.815 901.931,981.892 903.738,982.958 905.636,984.009 907.616,985.046 909.672,986.064 911.795,987.065 913.978,988.044 916.213,988.999 918.492,989.93 920.808,990.835 923.153,991.709 925.518,992.553 927.897,993.366 930.282,994.143 932.665,994.883 935.037,995.585 937.392,996.246 939.722,996.865 942.018,997.441 944.274,997.97 "/>
     <polygon id="_243331344" class="fil1" points="877.168,1161.36 2013.05,2297.24 2013.05,2326.76 877.168,1190.88 "/>
     <polygon id="_243331872" class="fil1" points="877.168,1190.88 2013.05,2326.76 2009.82,2326.76 873.938,1190.88 "/>
     <polygon id="_243331728" class="fil1" points="565.36,981.244 1701.24,2117.13 1686.94,2332.98 551.063,1197.1 "/>
     <polygon id="_243331608" class="fil1" points="565.819,1190.88 1701.7,2326.76 1700.32,2326.76 564.435,1190.88 "/>
     <polygon id="_243331824" class="fil1" points="551.063,1197.1 1686.94,2332.98 1684.24,2332.57 548.359,1196.69 "/>
     <polygon id="_243331536" class="fil1" points="689.495,1567.84 1825.38,2703.72 1701.7,2703.72 565.819,1567.84 "/>
     <polygon id="_243331560" class="fil1" points="548.359,1196.69 1684.24,2332.57 1683.81,2335.86 547.924,1199.98 "/>
     <polygon id="_243331896" class="fil1" points="547.924,1199.98 1683.81,2335.86 1683.6,2336.79 1683.26,2337.62 1682.8,2338.35 1682.24,2338.96 1681.59,2339.42 1680.87,2339.73 1680.11,2339.87 1679.32,2339.83 543.435,1203.94 544.228,1203.99 544.991,1203.85 545.706,1203.54 546.355,1203.07 546.918,1202.47 547.38,1201.74 547.721,1200.91 "/>
     <polygon id="_243331704" class="fil1" points="543.435,1203.94 1679.32,2339.83 1676.92,2339.39 541.037,1203.51 "/>
     <polygon id="_243331632" class="fil1" points="541.037,1203.51 1676.92,2339.39 1673.61,2358.46 537.727,1222.57 "/>
     <polygon id="_243331656" class="fil1" points="481.846,1186.63 1617.73,2322.51 1616.79,2322.37 480.905,1186.49 "/>
     <polygon id="_243332424" class="fil1" points="545.102,1265.84 1680.98,2401.72 1681.4,2404.65 1681.7,2407.24 1681.91,2409.52 1682.04,2411.53 1682.1,2413.3 1682.12,2414.86 1682.1,2416.26 1682.06,2417.52 1682.02,2418.69 1681.98,2419.78 1681.97,2420.85 1682,2421.91 1682.09,2423.02 1682.25,2424.19 1682.49,2425.48 1682.83,2426.9 546.951,1291.02 546.609,1289.59 546.367,1288.31 546.209,1287.13 546.122,1286.03 546.091,1284.96 546.1,1283.9 546.134,1282.8 546.179,1281.64 546.219,1280.38 546.239,1278.98 546.224,1277.42 546.159,1275.65 546.03,1273.64 545.82,1271.36 545.516,1268.77 "/>
     <polygon id="_243332616" class="fil1" points="531.257,1282.61 1667.14,2418.49 1666.67,2418.4 530.787,1282.52 "/>
     <polygon id="_243332832" class="fil1" points="497.52,1272.8 1633.4,2408.69 1633.32,2408.83 1633.22,2409.21 1633.11,2409.83 1632.97,2410.71 1632.81,2411.87 496.927,1275.98 497.087,1274.83 497.226,1273.95 497.344,1273.32 497.441,1272.95 "/>
     <polygon id="_243332568" class="fil1" points="480.512,1272.14 1616.39,2408.02 1614.28,2421.46 478.399,1285.58 "/>
     <polygon id="_243332520" class="fil1" points="478.399,1285.58 1614.28,2421.46 1613.8,2423.5 1613.07,2425.18 1612.15,2426.52 1611.07,2427.52 1609.86,2428.2 1608.58,2428.58 1607.25,2428.68 1605.92,2428.49 1604.62,2428.05 1603.41,2427.37 1602.31,2426.45 466.432,1290.56 467.529,1291.48 468.743,1292.17 470.035,1292.61 471.365,1292.79 472.694,1292.7 473.98,1292.32 475.185,1291.64 476.269,1290.63 477.193,1289.3 477.916,1287.62 "/>
     <polygon id="_243332232" class="fil1" points="496.927,1275.98 1632.81,2411.87 1632.53,2413.9 1632.29,2415.66 1632.06,2417.18 1631.86,2418.51 1631.67,2419.67 1631.49,2420.72 1631.33,2421.68 1631.16,2422.61 1631,2423.53 1630.83,2424.5 1630.65,2425.54 1630.46,2426.71 1630.26,2428.03 1630.03,2429.55 1629.79,2431.31 1629.51,2433.35 1629.11,2435.23 1628.46,2436.82 1627.61,2438.12 1626.59,2439.13 1625.44,2439.87 1624.2,2440.32 1622.91,2440.5 1621.6,2440.42 1620.32,2440.08 1619.09,2439.48 1617.97,2438.62 482.092,1302.74 483.213,1303.59 484.434,1304.19 485.718,1304.54 487.026,1304.62 488.318,1304.44 489.558,1303.98 490.707,1303.25 491.728,1302.24 492.58,1300.94 493.228,1299.35 493.631,1297.47 493.907,1295.43 494.154,1293.67 494.377,1292.15 494.581,1290.82 494.769,1289.66 494.946,1288.61 495.115,1287.65 495.279,1286.72 495.444,1285.8 495.613,1284.83 495.789,1283.79 495.978,1282.63 496.181,1281.3 496.406,1279.78 496.653,1278.02 "/>
     <polygon id="_243332784" class="fil1" points="514.146,1279.31 1650.03,2415.19 1646.15,2441.53 510.272,1305.64 "/>
     <polygon id="_243332376" class="fil1" points="530.787,1282.52 1666.67,2418.4 1663.74,2440.11 1663.33,2441.95 1662.68,2443.52 1661.81,2444.81 1660.78,2445.82 1659.61,2446.56 1658.35,2447.03 1657.04,2447.24 1655.72,2447.18 1654.42,2446.86 1653.19,2446.28 1652.07,2445.44 516.187,1309.56 517.31,1310.39 518.539,1310.97 519.834,1311.3 521.158,1311.35 522.469,1311.15 523.728,1310.68 524.895,1309.94 525.932,1308.92 526.798,1307.63 527.454,1306.07 527.86,1304.22 "/>
     <polygon id="_243332136" class="fil1" points="546.951,1291.02 1682.83,2426.9 1683.3,2428.73 1683.57,2430.59 1683.63,2432.44 1683.49,2434.21 1683.16,2435.85 1682.63,2437.29 1681.92,2438.49 1681.02,2439.37 1679.47,2440.21 1677.83,2440.58 1676.13,2440.53 1674.44,2440.09 1672.78,2439.28 1671.2,2438.15 535.317,1302.27 536.895,1303.4 538.555,1304.21 540.253,1304.65 541.946,1304.7 543.59,1304.33 545.141,1303.49 546.037,1302.61 546.75,1301.41 547.276,1299.97 547.61,1298.33 547.75,1296.56 547.688,1294.71 547.424,1292.84 "/>
     <polygon id="_243332304" class="fil1" points="510.272,1305.64 1646.15,2441.53 1645.69,2443.47 1644.99,2445.09 1644.07,2446.39 1642.99,2447.4 1641.79,2448.1 1640.49,2448.52 1639.16,2448.67 1637.82,2448.54 1636.51,2448.15 1635.29,2447.52 1634.18,2446.64 498.3,1310.76 499.407,1311.64 500.632,1312.27 501.936,1312.66 503.275,1312.78 504.612,1312.64 505.904,1312.22 507.111,1311.51 508.192,1310.51 509.106,1309.21 509.813,1307.59 "/>
     <polygon id="_243333552" class="fil1" points="484.924,1193.35 1620.81,2329.24 1620.04,2329 1619.35,2328.6 483.466,1192.72 484.157,1193.12 "/>
     <polygon id="_243333168" class="fil1" points="488.693,1194.04 1624.57,2329.92 1620.81,2329.24 484.924,1193.35 "/>
     <polygon id="_243333240" class="fil1" points="537.727,1222.57 1673.61,2358.46 1674.65,2359.85 1675.58,2361.24 1676.42,2362.61 1677.17,2363.97 1677.83,2365.31 1678.41,2366.65 1678.91,2367.97 1679.33,2369.29 1679.69,2370.6 1679.99,2371.91 1680.23,2373.21 1680.42,2374.51 1680.56,2375.81 1680.66,2377.11 1680.72,2378.41 1680.75,2379.7 1680.75,2381.01 1680.73,2382.31 1680.7,2383.63 1680.65,2384.95 1680.6,2386.27 1680.54,2387.61 1680.49,2388.95 1680.44,2390.31 1680.41,2391.68 1680.39,2393.06 1680.41,2394.46 1680.44,2395.88 1680.52,2397.31 1680.63,2398.76 1680.78,2400.23 1680.98,2401.72 545.102,1265.84 544.898,1264.35 544.745,1262.88 544.634,1261.43 544.562,1260 544.524,1258.58 544.513,1257.18 544.526,1255.8 544.558,1254.43 544.604,1253.07 544.658,1251.72 544.714,1250.39 544.769,1249.06 544.817,1247.74 544.852,1246.43 544.872,1245.12 544.869,1243.82 544.839,1242.52 544.778,1241.22 544.679,1239.93 544.538,1238.63 544.35,1237.33 544.109,1236.03 543.812,1234.72 543.453,1233.41 543.025,1232.09 542.526,1230.76 541.949,1229.43 541.289,1228.08 540.543,1226.73 539.703,1225.36 538.766,1223.97 "/>
     <polygon id="_243333144" class="fil1" points="716.869,1327.4 1852.75,2463.28 1825.38,2703.72 689.495,1567.84 "/>
     <polygon id="_243333336" class="fil1" points="873.938,1190.88 2009.82,2326.76 2009.82,2703.72 873.938,1567.84 "/>
     <polygon id="_243332952" class="fil1" points="873.938,1567.84 2009.82,2703.72 1883.12,2703.72 747.234,1567.84 "/>
     <polygon id="_243333048" class="fil1" points="1265.09,1303.37 2400.97,2439.25 2392.74,2439.15 2384.56,2438.84 2376.43,2438.33 2368.36,2437.61 2360.35,2436.69 2352.4,2435.58 2344.52,2434.27 2336.7,2432.78 2328.95,2431.09 2321.27,2429.21 2313.67,2427.16 2306.14,2424.92 2298.69,2422.5 2291.32,2419.9 2284.04,2417.13 2276.84,2414.19 2269.73,2411.08 2262.71,2407.81 2255.79,2404.37 2248.96,2400.76 2242.23,2397 2235.61,2393.08 2229.08,2389.01 2222.67,2384.79 2216.36,2380.42 2210.16,2375.9 2204.08,2371.23 2198.12,2366.43 2192.27,2361.49 2186.54,2356.41 2180.94,2351.19 1045.06,1215.31 1050.66,1220.52 1056.39,1225.6 1062.24,1230.55 1068.2,1235.35 1074.28,1240.02 1080.48,1244.53 1086.79,1248.91 1093.2,1253.13 1099.73,1257.2 1106.35,1261.12 1113.08,1264.88 1119.91,1268.48 1126.83,1271.92 1133.85,1275.2 1140.96,1278.31 1148.16,1281.25 1155.44,1284.02 1162.81,1286.62 1170.26,1289.03 1177.79,1291.27 1185.39,1293.33 1193.07,1295.21 1200.82,1296.89 1208.64,1298.39 1216.52,1299.7 1224.47,1300.81 1232.48,1301.73 1240.55,1302.44 1248.68,1302.96 1256.86,1303.27 "/>
     <polygon id="_243333384" class="fil1" points="1052.22,718.863 2188.1,1854.75 2187.99,1854.75 2187.89,1854.75 2187.78,1854.75 2187.68,1854.75 2187.57,1854.76 2187.47,1854.76 2187.36,1854.76 2187.26,1854.76 2184.63,1854.63 2182.07,1854.24 2179.61,1853.6 2177.24,1852.74 2174.99,1851.65 2172.87,1850.36 2170.89,1848.88 2169.06,1847.22 1033.18,711.34 1035.01,713.001 1036.99,714.482 1039.11,715.771 1041.36,716.854 1043.72,717.72 1046.19,718.353 1048.75,718.744 1051.38,718.876 1051.48,718.876 1051.59,718.875 1051.69,718.874 1051.8,718.873 1051.9,718.871 1052.01,718.869 1052.11,718.866 "/>
     <polygon id="_243332880" class="fil1" points="832.875,607.503 1968.76,1743.39 1968.76,1770.67 832.875,634.79 "/>
     <polygon id="_243333432" class="fil1" points="832.875,634.79 1968.76,1770.67 1966.21,1774.08 830.329,638.197 "/>
     <path id="_243334104" class="fil1" d="M1963.56 1906.81l0 0zm-1135.88 -1135.88l0 0z"/>
     <polygon id="_243334296" class="fil1" points="777.877,743.816 1913.76,1879.7 1913.76,1884.02 777.877,748.138 "/>
     <path id="_243334344" class="fil1" d="M1963.63 1906.81l0 0zm-1135.88 -1135.88l0 0z"/>
     <polygon id="_243333984" class="fil1" points="867.793,805.977 2003.67,1941.86 2008.16,1946.51 2012.63,1951.33 2017.08,1956.29 2021.51,1961.37 2025.89,1966.55 2030.23,1971.81 2034.52,1977.12 2038.74,1982.47 2042.9,1987.83 2046.98,1993.18 2050.97,1998.51 2054.87,2003.77 2058.68,2008.97 2062.37,2014.07 2065.95,2019.05 2069.4,2023.89 2072.73,2028.57 2075.91,2033.07 2078.94,2037.36 2081.82,2041.43 2084.54,2045.25 948.66,909.368 945.943,905.547 943.064,901.479 940.028,897.185 936.845,892.687 933.523,888.007 930.068,883.165 926.49,878.185 922.796,873.086 918.993,867.891 915.09,862.623 911.095,857.303 907.015,851.951 902.859,846.59 898.634,841.242 894.348,835.928 890.009,830.67 885.624,825.49 881.202,820.409 876.752,815.448 872.279,810.63 "/>
     <polygon id="_243333744" class="fil1" points="1490.59,1209.96 2626.47,2345.85 2621,2351.19 2615.4,2356.41 2609.67,2361.49 2603.83,2366.43 2597.86,2371.23 2591.78,2375.9 2585.58,2380.42 2579.28,2384.79 2572.86,2389.01 2566.34,2393.08 2559.71,2397 2552.98,2400.76 2546.15,2404.37 2539.23,2407.81 2532.21,2411.08 2525.1,2414.19 2517.91,2417.13 2510.62,2419.9 2503.25,2422.5 2495.8,2424.92 2488.28,2427.16 2480.67,2429.21 2472.99,2431.09 2465.24,2432.78 2457.42,2434.27 2449.54,2435.58 2441.59,2436.69 2433.58,2437.61 2425.51,2438.33 2417.38,2438.84 2409.2,2439.15 2400.97,2439.25 1265.09,1303.37 1273.32,1303.27 1281.5,1302.96 1289.63,1302.44 1297.7,1301.73 1305.71,1300.81 1313.66,1299.7 1321.54,1298.39 1329.36,1296.89 1337.11,1295.21 1344.79,1293.33 1352.39,1291.27 1359.92,1289.03 1367.37,1286.62 1374.74,1284.02 1382.03,1281.25 1389.22,1278.31 1396.33,1275.2 1403.35,1271.92 1410.27,1268.48 1417.1,1264.88 1423.83,1261.12 1430.46,1257.2 1436.98,1253.13 1443.39,1248.91 1449.7,1244.53 1455.9,1240.02 1461.98,1235.35 1467.94,1230.55 1473.79,1225.6 1479.52,1220.52 1485.12,1215.31 "/>
     <polygon id="_243334200" class="fil1" points="1069.57,674.953 2205.45,1810.84 2207.11,1812.66 2208.59,1814.64 2209.88,1816.76 2210.97,1819.01 2211.83,1821.38 2212.46,1823.84 2212.85,1826.4 2212.99,1829.03 2212.96,1830.1 2212.9,1831.16 2212.79,1832.21 2212.64,1833.25 2212.45,1834.27 2212.22,1835.28 2211.95,1836.27 2211.65,1837.25 1075.77,701.365 1076.07,700.388 1076.34,699.396 1076.57,698.389 1076.76,697.366 1076.91,696.329 1077.02,695.28 1077.08,694.218 1077.11,693.146 1076.97,690.515 1076.58,687.961 1075.95,685.496 1075.08,683.131 1074,680.882 1072.71,678.761 1071.23,676.78 "/>
     <polygon id="_243334224" class="fil1" points="1075.77,701.365 2211.65,1837.25 2223.43,1855.39 1087.55,719.508 "/>
     <polygon id="_243333888" class="fil1" points="1232.51,657.093 2368.4,1792.98 2336.39,1792.98 1200.51,657.093 "/>
     <polygon id="_243333912" class="fil1" points="1200.51,657.093 2336.39,1792.98 2334.89,1792.82 2333.43,1792.35 2332.02,1791.59 2330.67,1790.55 2329.39,1789.25 1193.51,653.371 1194.79,654.669 1196.14,655.706 1197.55,656.467 1199.01,656.933 "/>
     <polygon id="_243334008" class="fil1" points="1584,984.463 2719.88,2120.34 2719.78,2128.58 2719.47,2136.76 2718.95,2144.88 2718.23,2152.95 2717.32,2160.96 2716.21,2168.91 2714.9,2176.8 2713.4,2184.62 2711.72,2192.37 2709.84,2200.04 2707.78,2207.65 2705.54,2215.18 2703.12,2222.63 2700.53,2230 2697.76,2237.28 2694.82,2244.48 2691.71,2251.59 2688.43,2258.6 2684.99,2265.53 2681.39,2272.36 2677.63,2279.08 2673.71,2285.71 2669.64,2292.23 2665.42,2298.65 2661.04,2304.96 2656.52,2311.15 2651.86,2317.23 2647.06,2323.2 2642.11,2329.05 2637.03,2334.77 2631.82,2340.37 2626.47,2345.85 1490.59,1209.96 1495.94,1204.49 1501.15,1198.89 1506.23,1193.16 1511.18,1187.32 1515.98,1181.35 1520.64,1175.27 1525.16,1169.07 1529.53,1162.77 1533.76,1156.35 1537.83,1149.83 1541.75,1143.2 1545.51,1136.47 1549.11,1129.65 1552.55,1122.72 1555.83,1115.7 1558.94,1108.6 1561.88,1101.4 1564.65,1094.11 1567.24,1086.74 1569.66,1079.3 1571.9,1071.77 1573.96,1064.16 1575.83,1056.48 1577.52,1048.73 1579.02,1040.91 1580.33,1033.03 1581.44,1025.08 1582.35,1017.07 1583.07,1009 1583.59,1000.87 1583.9,992.694 "/>
    </g>
    <path id="_289350728" class="fil1" d="M827.681 770.93l0 0zm0.0649607 -0.00708662l0 0zm0.252756 -0.0295276l0 0zm0.0283465 -0.00236221l0 0zm372.48 -175.471l129.169 0c8.11064,0 14.6858,13.8071 14.6858,30.8362 0,17.0291 -6.5752,30.8362 -14.6858,30.8362l-32.0079 0 0 10.1043c53.2949,5.40709 102.711,23.9386 144.967,52.3099l11.7626 -18.1134c-0.875198,-2.58898 -1.35,-5.36339 -1.35,-8.24764 0,-14.2087 11.5205,-25.728 25.7292,-25.728 14.211,0 25.7303,11.5193 25.7303,25.728 0,14.211 -11.5193,25.7303 -25.7303,25.7303 -0.271654,0 -0.542126,-0.00472441 -0.811418,-0.0129921l-11.752 18.0957c8.5004,6.91536 16.6382,14.2606 24.3792,22.0016 57.7111,57.7122 93.4076,137.44 93.4076,225.502 0,88.0631 -35.6965,167.791 -93.4076,225.502 -57.7122,57.7122 -137.439,93.4076 -225.503,93.4076 -88.0619,0 -167.789,-35.6953 -225.501,-93.4076 -54.6402,-54.639 -89.5453,-129.015 -93.1064,-211.514 -23.2571,-4.86378 -56.1225,-18.2717 -56.3422,-29.6799l-19.3441 -31.2933 2.99882 223.884 3.37323 0 0 29.5181 -3.22914 0 0 376.956 -126.704 0 -30.365 -240.436 -27.3744 240.436 -123.676 0 0 -376.956 -1.38425 0 0 -29.5181 2.25473 0 -1.32992 -180.117 -14.2973 215.854 -2.70355 -0.408662 -0.434646 3.29292c-0.340158,2.57481 -2.3504,4.34882 -4.48937,3.96142l-2.39764 -0.433465 -3.31063 19.0642c11.6539,15.0024 4.93465,27.2362 7.37481,43.2674 2.52874,16.591 -0.272835,17.1496 1.84961,25.1752 1.54134,4.76811 0.819686,10.5768 -1.81063,12.4748 -3.97205,2.86654 -9.40394,0.483071 -12.5563,-4.33229 -3.63425,-5.55 -1.67717,-9.33308 -1.32756,-16.5532l-0.470079 -0.0850394 -2.92677 21.7016c-1.42913,10.598 -15.2032,9.12402 -14.3032,-2.59016l0.589371 -22.3229 -3.87402 26.3351c-1.71378,11.2287 -15.7488,8.33505 -14.3043,-2.58898 0.713386,-5.39528 2.79095,-40.9276 0.959056,-27.0721 -1.5437,11.6799 -1.7504,9.80079 -3.29528,21.4819 -1.43504,10.8555 -14.8996,8.8689 -14.3032,-2.59016l1.18347 -22.7398 -2.11299 13.4457c-1.86378,11.8654 -15.6697,7.74804 -14.3043,-2.58898 1.77638,-13.4339 -0.288189,-12.8835 1.48701,-26.3185l1.97008 -14.9067c1.7941,-13.565 8.17914,-22.9583 18.0071,-29.9599l3.13465 -17.7709 -3.7689 -0.681497c-2.13898,-0.387402 -3.59646,-2.78858 -3.25748,-5.36339l0.179528 -1.35945 -0.941339 -0.142913c0,-40.8945 34.4233,-291.919 43.265,-327.89 9.81261,-39.9118 38.1744,-66.5079 76.3489,-79.6808 9.36379,-3.2315 19.4575,-5.26654 29.9788,-5.94331l15.4795 -43.7622 20.1012 18.9236 0 -4.32166c-31.3748,-19.0358 -52.4504,-53.5323 -52.4504,-92.7119l0 -31.9713c-3.28937,-12.8941 -5.11181,-26.0788 -5.11181,-39.0425 0,-38.2996 13.5437,-63.4772 35.4366,-79.3477 20.7414,-15.0366 48.1926,-20.5772 78.0249,-20.5772 29.8335,0 57.2823,5.54056 78.0249,20.5772 21.8929,15.8705 35.4355,41.0481 35.4355,79.3477 0,10.8709 -0.549213,16.4575 -2.56299,27.4134l0 27.287 -2.54646 3.40748 0 12.9059c0,39.1819 -21.0768,73.6784 -52.4516,92.7131l0 4.32166 20.1024 -18.9248 15.5799 41.1992c0.551575,0.115748 1.10787,0.223229 1.66654,0.323622 1.50473,0.269292 3.02835,0.635434 4.56969,1.09134 43.4929,12.8823 100.787,98.1851 128.864,137.541 2.82402,-2.76378 5.67638,-5.54528 8.54292,-8.32323 14.7413,-54.5398 43.5898,-103.286 82.3855,-142.084 7.74095,-7.74095 15.8788,-15.0862 24.3792,-22.0016l-11.7508 -18.0957c-0.27874,0.00826772 -0.559843,0.0129921 -0.840946,0.0129921 -14.2087,0 -25.7292,-11.5193 -25.7292,-25.7303 0,-14.2087 11.5205,-25.728 25.7292,-25.728 14.211,0 25.7303,11.5193 25.7303,25.728 0,2.87481 -0.47126,5.63859 -1.34055,8.2193l11.7803 18.1429c42.2575,-28.3725 91.6737,-46.904 144.969,-52.3122l0 -10.1032 -32.0079 0c-8.11064,0 -14.687,-13.8071 -14.687,-30.8362 0,-17.0291 6.57638,-30.8362 14.687,-30.8362z"/>
   </g>
  </g>
  <path class="fil2" d="M1024 -0.0011811c565.539,0 1024,458.462 1024,1024 0,565.539 -458.462,1024 -1024,1024 -565.539,0 -1024,-458.462 -1024,-1024 0,-565.539 458.462,-1024 1024,-1024z"/>
  <path class="fil3" d="M532.585 1299.16c3.15118,4.81418 8.58308,7.19764 12.5551,4.33111 2.63032,-1.89803 3.35197,-7.7067 1.80945,-12.476 -2.12126,-8.02442 0.680315,-8.58308 -1.84725,-25.174 -2.44252,-16.0311 4.27796,-28.265 -7.37481,-43.2674l3.58937 -20.6729 -52.3406 -9.47245 -3.41811 19.3784c-9.82796,7.00158 -16.213,16.3949 -18.0071,29.9587l-1.97008 14.9079c-1.7752,13.4339 0.28937,12.8847 -1.48701,26.3185 -1.36536,10.337 12.4406,14.4543 14.3043,2.58898l2.11181 -13.4457 -1.18228 22.7398c-0.596457,11.4591 12.8681,13.4445 14.3032,2.59016 1.5437,-11.6811 1.75158,-9.80198 3.29528,-21.4831 1.83189,-13.8543 -0.245669,21.678 -0.957875,27.0732 -1.44449,10.9228 12.5906,13.8177 14.3032,2.59016l3.8752 -26.3351 -0.590552 22.3217c-0.900001,11.7142 12.874,13.1882 14.3032,2.58898l2.92677 -21.7004 0.470079 0.0862205c-0.349607,7.2189 -2.30669,11.002 1.32874,16.5532z"/>
  <path class="fil4" d="M547.557 1172.77l-58.5119 -10.5886c-2.13898,-0.387402 -4.14803,1.38543 -4.48819,3.96142l-2.88898 21.8504c-0.340158,2.57481 1.11732,4.97599 3.2563,5.36339l58.5107 10.5886c2.13898,0.387402 4.14922,-1.38662 4.48937,-3.96024l2.88898 -21.8516c0.340158,-2.57481 -1.1185,-4.97717 -3.2563,-5.36339z"/>
  <polygon class="fil5" points="873.938,1185.34 565.819,1185.34 565.819,1567.84 689.495,1567.84 716.871,1327.4 747.234,1567.84 873.938,1567.84 "/>
  <rect class="fil6" x="666.079" y="722.644" width="111.798" height="136.915"/>
  <path class="fil7" d="M480.905 1186.49l70.1575 10.6075 14.2973 -215.854 1.38307 187.257 307.147 0 -3.09449 -231.024 21.9957 35.5819c26.3221,-7.49764 99.7572,-5.99646 64.6571,-51.691 -23.6103,-30.7347 -93.1513,-141.848 -142.223,-150.632 -15.0201,-2.68701 -27.3532,-11.2051 -40.213,-13.0937l-53.4957 44.5784c-39.9402,-30.6685 -85.6619,-35.4945 -120.998,-23.302 -38.1733,13.1728 -66.5363,39.7689 -76.3489,79.6808 -8.84174,35.9705 -43.265,286.994 -43.265,327.891z"/>
  <polygon class="fil8" points="734.345,800.905 708.459,803.88 692.741,1054.19 714.132,1090.2 741.99,1054.19 "/>
  <rect class="fil9" x="564.436" y="1161.36" width="312.732" height="29.517"/>
  <path class="fil10" d="M830.329 556.049l-216.701 0 0 95.054c0,59.5914 48.7571,108.35 108.351,108.35l0 0c59.5926,0 108.35,-48.7559 108.35,-108.35l0 -95.054z"/>
  <path class="fil11" d="M832.825 607.779c-16.8851,-2.86181 -34.1799,-8.12953 -50.2878,-15.6225 -18.4583,-8.5819 -35.6126,-20.2229 -49.2461,-34.7079 -6.64489,6.66733 -13.702,13.0878 -21.0555,19.161 -29.1,24.0319 -63.515,43.3453 -96.0095,51.6886 -4.91575,-15.7618 -7.71024,-32.1544 -7.71024,-48.2091 0,-38.2996 13.5437,-63.4772 35.4366,-79.3477 20.7414,-15.0366 48.1926,-20.5772 78.0249,-20.5772 29.8335,0 57.2835,5.54056 78.0249,20.5772 21.8941,15.8705 35.4355,41.0469 35.4355,79.3477 0,10.9606 -0.558662,16.5508 -2.6126,27.6898z"/>
  <polygon class="fil11" points="616.174,611.828 621.097,611.828 621.097,647.781 616.174,641.193 "/>
  <polygon class="fil11" points="832.875,605.424 827.952,605.424 827.952,641.378 832.875,634.79 "/>
  <polygon class="fil12" points="797.979,729.213 721.979,800.76 745.079,839.362 814.15,771.973 "/>
  <polygon class="fil12" points="645.977,729.213 721.978,800.76 698.878,839.362 630.362,773.359 "/>
  <path class="fil13" d="M1146.11 732.547c-2.16969,-6.52914 -7.71615,-10.9465 -13.187,-8.84883 -3.62126,1.38898 -6.23268,7.88268 -5.91024,13.8662 -0.00354331,9.92481 -5.73662,22.9441 -11.8417,30.6981 -12.0319,15.2799 -26.6622,21.3898 -28.5685,44.0256l-19.9051 15.2728 38.3563 50.7355 18.704 -14.2725c14.3173,1.80354 27.5421,-1.28268 40.1091,-11.7591l13.8118 -11.5134c12.4453,-10.376 10.1835,-11.5654 22.6299,-21.9414 9.57639,-7.98426 0.770079,-22.7906 -10.4823,-13.865l-12.7488 10.1126 19.4634 -19.0406c9.8067,-9.59292 -0.425197,-22.2496 -10.4823,-13.865 -10.8213,9.02127 -9.4819,7.20119 -20.3032,16.2213 -12.835,10.702 17.7791,-18.8646 22.7788,-23.0327 10.1185,-8.43544 0.121654,-22.3512 -10.4835,-13.865l-24.7429 20.0209 18.6047 -19.1528c10.2815,-9.57402 -0.637796,-22.0288 -10.4823,-13.8662l-20.1555 16.7126 -0.34252 -0.455906c3.38032,-7.64292 7.68071,-24.6579 5.17796,-32.1874z"/>
  <path class="fil4" d="M1037.6 848.125l42.8776 56.7178c1.56732,2.07402 4.77166,2.14252 7.1563,0.153543l20.2441 -16.8768c2.38583,-1.98898 3.04961,-5.28189 1.4811,-7.35355l-42.8776 -56.7178c-1.56732,-2.07402 -4.77166,-2.14252 -7.1563,-0.153543l-20.2441 16.8768c-2.38583,1.98898 -3.04961,5.28071 -1.4811,7.35355z"/>
  <path class="fil14" d="M892.6 963.598c24.613,-20.5736 122.358,-126.178 144.546,-126.325 5.35394,-0.034252 10.2366,2.00669 13.3571,6.13465l36.9142 48.8304c3.12047,4.12677 3.90709,9.58347 2.66103,15.0508 -1.24725,5.46733 -4.52953,10.9512 -9.54331,15.1311 -40.8674,29.4957 -94.1576,73.6914 -115.293,77.6079 -17.6646,3.27402 -89.1721,-20.6705 -72.6414,-36.4299z"/>
  <path class="fil15" d="M1197.97 795.909c3.99567,-3.34134 4.52599,-9.28938 1.18465,-13.2839 -3.34016,-3.99567 -9.2882,-4.52599 -13.2839,-1.18465l-24.9496 19.513c-3.99567,3.34016 -4.52599,9.2882 -1.18465,13.285 3.34016,3.99449 9.2882,4.52481 13.285,1.18347l24.9484 -19.513z"/>
  <path class="fil15" d="M1189.74 775.198c3.99567,-3.34134 4.52717,-9.28938 1.18583,-13.285 -3.34134,-3.99567 -9.28938,-4.52599 -13.285,-1.18465l-25.7669 21.7571c-3.99567,3.34134 -4.52599,9.28938 -1.18465,13.285 3.34134,3.99567 9.28938,4.52481 13.2839,1.18465l25.7669 -21.7571z"/>
  <path class="fil15" d="M1174.88 762.34c3.99567,-3.34134 4.52481,-9.28938 1.18347,-13.285 -3.34016,-3.99449 -9.2882,-4.52599 -13.2839,-1.18465l-19.7386 16.5685c-3.99567,3.34134 -4.52481,9.28938 -1.18347,13.285 3.34016,3.99567 9.2882,4.52481 13.2839,1.18465l19.7386 -16.5685z"/>
  <path class="fil15" d="M1202.15 817.053c3.99567,-3.34134 4.52599,-9.28938 1.18465,-13.285 -3.34134,-3.99449 -9.28938,-4.52481 -13.2839,-1.18347l-20.4036 16.2059c-3.99567,3.34134 -4.52599,9.28938 -1.18465,13.285 3.34016,3.99449 9.2882,4.52481 13.2839,1.18465l20.4036 -16.2071z"/>
  <path class="fil16" d="M1142.65 767.745c4.71378,-3.93307 10.6004,-4.64528 13.1492,-1.58977 2.54882,3.05433 0.794883,8.7189 -3.9189,12.652 -4.7126,3.93189 -8.01733,2.75788 -10.5673,-0.296457 -2.54882,-3.05433 -3.37559,-6.83386 1.33701,-10.7658z"/>
  <path class="fil16" d="M1150.84 785.806c4.75158,-3.88583 10.6453,-4.54016 13.1634,-1.45984 2.51811,3.07914 0.708662,8.72599 -4.04292,12.6118 -4.7504,3.88583 -8.04449,2.67992 -10.5638,-0.400394 -2.51811,-3.07914 -3.30827,-6.86575 1.44331,-10.7516z"/>
  <path class="fil16" d="M1161.35 802.991c5.19095,-3.27638 11.1201,-3.20551 13.2437,0.159449 2.12362,3.36496 -0.362599,8.74725 -5.55473,12.0236 -5.19095,3.27638 -8.3126,1.67599 -10.4362,-1.68898 -2.12244,-3.36378 -2.4437,-7.21772 2.74725,-10.4941z"/>
  <path class="fil16" d="M1169.08 821.571c5.03032,-3.51733 10.9559,-3.72638 13.2366,-0.465355 2.27953,3.25985 0.0496063,8.75434 -4.98071,12.2717 -5.03032,3.51733 -8.22402,2.06693 -10.5036,-1.19291 -2.28071,-3.26103 -2.78268,-7.09607 2.24764,-10.6134z"/>
  <polygon class="fil17" points="828.027,770.89 828.027,770.888 828.002,770.891 827.998,770.893 "/>
  <polygon class="fil17" points="827.681,770.93 827.681,770.927 813.866,772.504 813.87,772.51 "/>
  <polygon class="fil17" points="828.027,770.888 828.027,770.89 836.99,769.864 "/>
  <polygon class="fil17" points="827.681,770.927 827.681,770.93 827.746,770.921 827.744,770.92 "/>
  <polygon class="fil17" points="827.744,770.92 827.746,770.921 827.886,770.906 827.87,770.906 "/>
  <polygon class="fil17" points="827.87,770.906 827.886,770.906 827.998,770.893 828.002,770.891 "/>
  <path class="fil18" d="M1297.67 629.252c0,-8.11064 -14.5854,-14.687 -32.5772,-14.687 -17.9906,0 -32.576,6.57638 -32.576,14.687l0 48.437c0,8.11182 14.5854,14.6882 32.576,14.6882 17.9917,0 32.5772,-6.57638 32.5772,-14.6882l0 -48.437z"/>
  <path class="fil19" d="M1200.51 595.42c-8.11064,0 -14.687,13.8071 -14.687,30.8362 0,17.0303 6.57638,30.8362 14.687,30.8362l129.169 0c8.11064,0 14.6858,-13.8059 14.6858,-30.8362 0,-17.0291 -6.5752,-30.8362 -14.6858,-30.8362l-129.169 0z"/>
  <path class="fil18" d="M1485.8 706.799c4.40315,-6.78071 2.47677,-15.848 -4.30276,-20.2524 -6.78071,-4.40315 -15.848,-2.47677 -20.2524,4.30276l-26.3799 40.624c-4.40315,6.77953 -2.47795,15.8469 4.30276,20.2512 6.77953,4.40315 15.8469,2.47677 20.25,-4.30276l26.3823 -40.6229z"/>
  <path class="fil18" d="M1068.94 690.85c-4.40433,-6.78071 -13.4705,-8.70591 -20.25,-4.30276 -6.78071,4.40315 -8.70709,13.4717 -4.30276,20.2512l26.3799 40.624c4.40433,6.77953 13.4717,8.70591 20.2524,4.30158 6.77953,-4.40433 8.70591,-13.4705 4.30158,-20.25l-26.3811 -40.624z"/>
  <path class="fil20" d="M1265.09 665.553c88.0631,0 167.791,35.6965 225.503,93.4087 57.7111,57.7111 93.4076,137.439 93.4076,225.501 0,88.0642 -35.6965,167.791 -93.4076,225.502 -57.7122,57.7122 -137.439,93.4076 -225.503,93.4076 -88.0619,0 -167.789,-35.6953 -225.501,-93.4076 -57.7111,-57.7111 -93.4076,-137.439 -93.4076,-225.502 0,-88.0631 35.6965,-167.79 93.4076,-225.501 57.7122,-57.7111 137.44,-93.4087 225.501,-93.4087z"/>
  <path class="fil1" d="M1265.09 715.113c74.3788,0 141.717,30.1477 190.46,78.8918 48.743,48.7418 78.8918,116.081 78.8918,190.458 0,74.3788 -30.1488,141.717 -78.8918,190.459 -48.743,48.743 -116.08,78.8918 -190.46,78.8918 -74.3764,0 -141.715,-30.1488 -190.458,-78.8918 -48.743,-48.7418 -78.8918,-116.081 -78.8918,-190.459 0,-74.3764 30.1488,-141.716 78.8918,-190.458 48.743,-48.7441 116.081,-78.8918 190.458,-78.8918z"/>
  <path class="fil20" d="M1051.38 667.418c14.211,0 25.7303,11.5193 25.7303,25.728 0,14.211 -11.5193,25.7303 -25.7303,25.7303 -14.2087,0 -25.7292,-11.5193 -25.7292,-25.7303 0,-14.2087 11.5205,-25.728 25.7292,-25.728z"/>
  <path class="fil20" d="M1478.78 667.418c14.211,0 25.7303,11.5193 25.7303,25.728 0,14.211 -11.5193,25.7303 -25.7303,25.7303 -14.2087,0 -25.728,-11.5193 -25.728,-25.7303 0,-14.2087 11.5193,-25.728 25.728,-25.728z"/>
  <path class="fil21" d="M1265.09 743.307c133.187,0 241.155,107.969 241.155,241.155 0,133.187 -107.968,241.156 -241.155,241.156 -133.186,0 -241.155,-107.969 -241.155,-241.156 0,-133.186 107.969,-241.155 241.155,-241.155zm0 38.7981c111.761,0 202.36,90.5989 202.36,202.357 0,111.76 -90.5989,202.358 -202.36,202.358 -111.76,0 -202.357,-90.5989 -202.357,-202.358 0,-111.758 90.5977,-202.357 202.357,-202.357z"/>
  <path class="fil22" d="M1025.08 979.222c-2.89488,0 -5.24174,2.34685 -5.24174,5.24174 0,2.89488 2.34685,5.24292 5.24174,5.24292l32.2205 0c2.89488,0 5.24292,-2.34803 5.24292,-5.24292 0,-2.89488 -2.34803,-5.24174 -5.24292,-5.24174l-32.2205 0z"/>
  <path class="fil22" d="M1270.33 744.454c0,-2.89488 -2.34803,-5.24292 -5.2441,-5.24292 -2.89488,0 -5.24174,2.34803 -5.24174,5.24292l0 32.2193c0,2.89488 2.34685,5.24292 5.24174,5.24292 2.89607,0 5.2441,-2.34803 5.2441,-5.24292l0 -32.2193z"/>
  <path class="fil22" d="M1472.88 979.222c-2.89607,0 -5.24292,2.34685 -5.24292,5.24174 0,2.89488 2.34685,5.24292 5.24292,5.24292l32.2181 0c2.89488,0 5.2441,-2.34803 5.2441,-5.24292 0,-2.89488 -2.34921,-5.24174 -5.2441,-5.24174l-32.2181 0z"/>
  <path class="fil22" d="M1270.33 1192.25c0,-2.89607 -2.34803,-5.2441 -5.2441,-5.2441 -2.89488,0 -5.24174,2.34803 -5.24174,5.2441l0 32.2181c0,2.89607 2.34685,5.24292 5.24174,5.24292 2.89607,0 5.2441,-2.34685 5.2441,-5.24292l0 -32.2181z"/>
  <path class="fil22" d="M1099.09 811.044c-2.04803,-2.04685 -5.36811,-2.04685 -7.41497,0 -2.04685,2.04803 -2.04685,5.36811 0,7.41497l22.7823 22.7823c2.04685,2.04685 5.36693,2.04685 7.41379,0 2.04803,-2.04685 2.04803,-5.36693 0,-7.41497l-22.7811 -22.7823z"/>
  <path class="fil22" d="M1099.09 1157.88c-2.04803,2.04803 -5.36811,2.04803 -7.41497,0 -2.04685,-2.04685 -2.04685,-5.36575 0,-7.41379l22.7823 -22.7823c2.04685,-2.04803 5.36693,-2.04803 7.41379,0 2.04803,2.04685 2.04803,5.36693 0,7.41497l-22.7811 22.7811z"/>
  <path class="fil22" d="M1415.73 1127.69c-2.04685,-2.04803 -5.36693,-2.04803 -7.41497,0 -2.04685,2.04685 -2.04685,5.36693 0,7.41497l22.7835 22.7811c2.04685,2.04803 5.36693,2.04803 7.41497,0 2.04685,-2.04685 2.04685,-5.36575 0,-7.41379l-22.7835 -22.7823z"/>
  <path class="fil22" d="M1415.73 841.241c-2.04685,2.04685 -5.36693,2.04685 -7.41497,0 -2.04685,-2.04685 -2.04685,-5.36693 0,-7.41497l22.7835 -22.7823c2.04685,-2.04685 5.36693,-2.04685 7.41497,0 2.04685,2.04803 2.04685,5.36811 0,7.41497l-22.7835 22.7823z"/>
  <path class="fil23" d="M1275.93 980.133l127.98 134.593c33.0189,-35.1874 51.5445,-81.7394 51.5445,-130.263 0,-101.482 -79.3997,-184.415 -179.473,-190.061l-0.0507874 185.731z"/>
  <path class="fil5" d="M1294.43 1004.41l109.834 126.28 -121.336 -115.27 -14.4307 -15.0791 -0.119291 -0.180709c-5.31142,1.30394 -11.152,-0.186614 -15.2055,-4.42205 -4.04174,-4.22363 -5.27717,-10.1032 -3.76181,-15.3414l-3.34725 -3.49843c-3.04016,-3.17481 -2.92914,-8.21457 0.245669,-11.2547 3.17717,-3.04016 8.21694,-2.92914 11.2571,0.246851l3.3815 3.53386c5.27363,-1.24606 11.0504,0.255118 15.0685,4.45276 4.04882,4.23071 5.28189,10.1244 3.75473,15.3685l0.229134 0.0874016 14.4295 15.0768z"/>
  <path class="fil24" d="M1257.09 950.461l7.96182 -167.173 7.96064 167.173 0 20.8701 -0.0389764 0.21378c4.73859,2.72953 7.92757,7.84489 7.92757,13.7067 0,5.84528 -3.17244,10.95 -7.88859,13.6843l0 4.84252c0,4.39725 -3.56457,7.96064 -7.96064,7.96064 -4.39607,0 -7.96182,-3.56339 -7.96182,-7.96064l0 -4.89095c-4.67008,-2.74725 -7.80591,-7.82363 -7.80591,-13.6358 0,-5.85591 3.18307,-10.9665 7.91339,-13.6984l-0.10748 -0.222047 0 -20.8701z"/>
  <path class="fil25" d="M1265.09 976.377c4.90158,0 8.87481,3.97441 8.87481,8.87481 0,4.9004 -3.97323,8.87363 -8.87481,8.87363 -4.90158,0 -8.87481,-3.97323 -8.87481,-8.87363 0,-4.9004 3.97323,-8.87481 8.87481,-8.87481z"/>
  <path class="fil26" d="M1265.09 982.111c1.73504,0 3.14055,1.40669 3.14055,3.14055 0,1.73386 -1.40551,3.13937 -3.14055,3.13937 -1.73386,0 -3.13937,-1.40551 -3.13937,-3.13937 0,-1.73386 1.40551,-3.14055 3.13937,-3.14055z"/>
  <path class="fil27" d="M1203.44 653.938c-1.73032,-7.75985 -2.75197,-17.328 -2.75197,-27.6815 0,-10.3536 1.02165,-19.9205 2.75197,-27.6803 1.73032,7.75985 2.75197,17.3268 2.75197,27.6803 0,10.3536 -1.02165,19.9217 -2.75197,27.6815z"/>
  <path class="fil27" d="M1213.72 653.938c-1.73032,-7.75985 -2.75197,-17.328 -2.75197,-27.6815 0,-10.3536 1.02165,-19.9205 2.75197,-27.6803 1.72914,7.75985 2.75197,17.3268 2.75197,27.6803 0,10.3536 -1.02284,19.9217 -2.75197,27.6815z"/>
  <path class="fil27" d="M1223.99 653.938c-1.72914,-7.75985 -2.75197,-17.328 -2.75197,-27.6815 0,-10.3536 1.02284,-19.9205 2.75197,-27.6803 1.72914,7.75985 2.75197,17.3268 2.75197,27.6803 0,10.3536 -1.02284,19.9217 -2.75197,27.6815z"/>
  <path class="fil27" d="M1234.27 653.938c-1.72914,-7.75985 -2.75197,-17.328 -2.75197,-27.6815 0,-10.3536 1.02284,-19.9205 2.75197,-27.6803 1.73032,7.75985 2.75197,17.3268 2.75197,27.6803 0,10.3536 -1.02165,19.9217 -2.75197,27.6815z"/>
  <path class="fil27" d="M1244.54 653.938c-1.72914,-7.75985 -2.75197,-17.328 -2.75197,-27.6815 0,-10.3536 1.02284,-19.9205 2.75197,-27.6803 1.73032,7.75985 2.75197,17.3268 2.75197,27.6803 0,10.3536 -1.02165,19.9217 -2.75197,27.6815z"/>
  <path class="fil27" d="M1254.82 653.938c-1.72914,-7.75985 -2.75079,-17.328 -2.75079,-27.6815 0,-10.3536 1.02165,-19.9205 2.75079,-27.6803 1.73032,7.75985 2.75197,17.3268 2.75197,27.6803 0,10.3536 -1.02165,19.9217 -2.75197,27.6815z"/>
  <path class="fil27" d="M1265.09 653.938c-1.72914,-7.75985 -2.75079,-17.328 -2.75079,-27.6815 0,-10.3536 1.02165,-19.9205 2.75079,-27.6803 1.73032,7.75985 2.75197,17.3268 2.75197,27.6803 0,10.3536 -1.02165,19.9217 -2.75197,27.6815z"/>
  <path class="fil27" d="M1275.37 653.938c-1.73032,-7.75985 -2.75315,-17.328 -2.75315,-27.6815 0,-10.3536 1.02284,-19.9205 2.75315,-27.6803 1.72914,7.75985 2.75079,17.3268 2.75079,27.6803 0,10.3536 -1.02165,19.9217 -2.75079,27.6815z"/>
  <path class="fil27" d="M1285.64 653.938c-1.73032,-7.75985 -2.75079,-17.328 -2.75079,-27.6815 0,-10.3536 1.02047,-19.9205 2.75079,-27.6803 1.73032,7.75985 2.75197,17.3268 2.75197,27.6803 0,10.3536 -1.02165,19.9217 -2.75197,27.6815z"/>
  <path class="fil27" d="M1295.91 653.938c-1.73032,-7.75985 -2.75315,-17.328 -2.75315,-27.6815 0,-10.3536 1.02284,-19.9205 2.75315,-27.6803 1.72914,7.75985 2.75197,17.3268 2.75197,27.6803 0,10.3536 -1.02284,19.9217 -2.75197,27.6815z"/>
  <path class="fil27" d="M1306.19 653.938c-1.72914,-7.75985 -2.75079,-17.328 -2.75079,-27.6815 0,-10.3536 1.02165,-19.9205 2.75079,-27.6803 1.73032,7.75985 2.75197,17.3268 2.75197,27.6803 0,10.3536 -1.02165,19.9217 -2.75197,27.6815z"/>
  <path class="fil27" d="M1316.46 653.938c-1.73032,-7.75985 -2.75197,-17.328 -2.75197,-27.6815 0,-10.3536 1.02165,-19.9205 2.75197,-27.6803 1.72914,7.75985 2.75197,17.3268 2.75197,27.6803 0,10.3536 -1.02284,19.9217 -2.75197,27.6815z"/>
  <path class="fil27" d="M1326.74 653.938c-1.73032,-7.75985 -2.75197,-17.328 -2.75197,-27.6815 0,-10.3536 1.02165,-19.9205 2.75197,-27.6803 1.72914,7.75985 2.75079,17.3268 2.75079,27.6803 0,10.3536 -1.02165,19.9217 -2.75079,27.6815z"/>
 </g>
</svg>
